# xmcd CD database file
#
# Track frame offsets:
#	150
#	12096
#	24767
#	36400
#	47942
#	59519
#	69654
#	81120
#	91520
#	101195
#	110870
#	121604
#	133474
#	142501
#	154691
#	164708
#	175944
#	188343
#	196068
#	207520
#	217704
#	227059
#	237542
#	246555
#	259518
#	272230
#	283960
#	298059
#	310709
#
# Disc length: 4289 seconds
#
# Revision: 5
# Processed by: cddbd v1.5.2PL0 Copyright (c) Steve Scherf et al.
# Submitted via: CDex 1.70beta2
#
DISCID=a810bf1d
DTITLE=Earl Hooker - Blue Guitar
DYEAR=2001
DGENRE=Blues
TTITLE0=Will My Man Be Home Tonight (Vocal by Lillian Offitt)
TTITLE1=Oh Mama (Vocal by Lillian Offitt)
TTITLE2=Calling All Blues (With Junior Wells)
TTITLE3=Swear To Tell The Truth (Vocal by Harold Tidewell)
TTITLE4=Galloping Horses A Lazy Mule (With Junior Wells)
TTITLE5=Blues In D Natural
TTITLE6=Universal Rock (With Junior Wells)
TTITLE7=Apache War Dance
TTITLE8=Rockin' With Kid
TTITLE9=Rockin' Wild
TTITLE10=This Little Voice (Vocal by A.C. Reed)
TTITLE11=I Wanna Be Free (Vocal by A.C. Reed)
TTITLE12=That Ain't Right (Vocal by A.C. Reed)
TTITLE13=Blue Guitar
TTITLE14=How Long Can This Go On
TTITLE15=Nothing But Good (Vocal by Reggie Boyd)
TTITLE16=These Cotton Pickin' Blues
TTITLE17=Off The Hook
TTITLE18=That Man
TTITLE19=The Bright Sound
TTITLE20=Win The Dance
TTITLE21=You'd Better Be Sure (Vocal by Ricky Allen)
TTITLE22=Crying Blues (Vocal by A.C. Reed)
TTITLE23=I Stay Mad (Vocal by A.C. Reed)
TTITLE24=Lotta Lovin' (Vocal by A.C. Reed)
TTITLE25=The Leading Brand
TTITLE26=Want You To Rock Me (Vocal by Jackie Brenston)
TTITLE27=Little By Little (Vocal by Ricky Allen)
TTITLE28=Don't You Ever Forget It (Vocal by Ricky Allen)
EXTD=YEAR: 2001
EXTT0=
EXTT1=
EXTT2=
EXTT3=
EXTT4=
EXTT5=
EXTT6=
EXTT7=
EXTT8=
EXTT9=
EXTT10=
EXTT11=
EXTT12=
EXTT13=
EXTT14=
EXTT15=
EXTT16=
EXTT17=
EXTT18=
EXTT19=
EXTT20=
EXTT21=
EXTT22=
EXTT23=
EXTT24=
EXTT25=
EXTT26=
EXTT27=
EXTT28=
PLAYORDER=
